<svg xmlns="http://www.w3.org/2000/svg" width="20" height="22" viewBox="0 0 20 22">
  <g id="Iconly_Light-Outline_Calendar" data-name="Iconly/Light-Outline/Calendar" transform="translate(-2 -1)">
    <g id="Calendar" transform="translate(2 1)">
      <path id="Combined-Shape" d="M14.147,0a.769.769,0,0,1,.769.767v.868a5.527,5.527,0,0,1,3.622,1.494A5.49,5.49,0,0,1,20,7.137v9.335C20,19.882,17.83,22,14.337,22H5.663C2.17,22,0,19.852,0,16.395V7.135a5.119,5.119,0,0,1,5.092-5.5V.767a.769.769,0,0,1,1.538,0v.848h6.747V.767A.769.769,0,0,1,14.147,0Zm4.314,9.111H1.538v7.284c0,2.626,1.465,4.07,4.124,4.07h8.675c2.659,0,4.124-1.418,4.124-3.993Zm-3.9,6.439a.769.769,0,1,1-.009,0Zm-4.551,0a.769.769,0,1,1-.009,0Zm-4.561,0a.77.77,0,1,1-.009,0Zm9.112-3.977a.769.769,0,1,1-.009,0Zm-4.551,0a.769.769,0,1,1-.009,0Zm-4.561,0a.77.77,0,1,1-.009,0Zm7.924-8.422H6.631v.984a.769.769,0,0,1-1.538,0V3.174A3.572,3.572,0,0,0,1.538,7.135v.441H18.461V7.135a3.949,3.949,0,0,0-1.012-2.921,3.968,3.968,0,0,0-2.532-1.04v.961a.769.769,0,0,1-1.538,0Z" transform="translate(0 0)" fill="#6e6e6e" fill-rule="evenodd"/>
    </g>
  </g>
</svg>
