<svg xmlns="http://www.w3.org/2000/svg" width="20" height="20" viewBox="0 0 20 20">
  <g id="Iconly_Light-Outline_Call" data-name="Iconly/Light-Outline/Call" transform="translate(-2 -1.999)">
    <g id="Call" transform="translate(2 1.999)">
      <path id="Fill-1" d="M2.3,2.986s-.047.051-.108.111a2.2,2.2,0,0,0-.73,1.7c-.008,1.4.91,3.988,5.331,8.408,4.4,4.4,6.988,5.327,8.387,5.327h.02a2.2,2.2,0,0,0,1.7-.73,2.28,2.28,0,0,1,.167-.158c.972-.978,1.469-1.705,1.464-2.172s-.6-1.039-1.418-1.818c-.26-.248-.543-.517-.842-.816-.774-.772-1.157-.64-2-.343-1.166.409-2.766.965-5.252-1.522S7.094,6.892,7.5,5.726c.295-.843.429-1.227-.345-2-.3-.3-.576-.589-.826-.853C5.556,2.058,5,1.47,4.525,1.463H4.517c-.467,0-1.193.5-2.22,1.527l0,0ZM15.183,20c-2.431,0-5.6-1.936-9.422-5.755C1.924,10.409-.014,7.23,0,4.794A3.634,3.634,0,0,1,1.17,2.05c.017-.02.073-.076.093-.1C2.662.555,3.605-.011,4.544,0c1.09.015,1.865.83,2.847,1.864.243.256.506.534.8.826a2.886,2.886,0,0,1,.693,3.519c-.355,1.018-.662,1.9,1.178,3.736s2.72,1.533,3.734,1.175a2.885,2.885,0,0,1,3.519.691c.289.289.563.549.816.79,1.038.986,1.858,1.766,1.871,2.858.012.932-.554,1.881-1.951,3.279l-.619-.42.523.511A3.631,3.631,0,0,1,15.21,20Z" transform="translate(0 0.001)" fill="#6e6e6e" fill-rule="evenodd"/>
    </g>
  </g>
</svg>
