<svg xmlns="http://www.w3.org/2000/svg" width="18" height="22" viewBox="0 0 18 22">
  <g id="Iconly_Light-Outline_2-User" data-name="Iconly/Light-Outline/2-User" transform="translate(-2 -2)">
    <g id="_2-User" data-name="2-User" transform="translate(2 2)">
      <path id="Combined-Shape" d="M9,13.8c3.863,0,9,.424,9,4.089,0,3.861-5.985,4.093-8.553,4.107H8.515C5.778,21.986,0,21.756,0,17.916c0-3.866,5.985-4.1,8.553-4.111H9Zm0,1.732c-3.294,0-7.222.412-7.222,2.381,0,1.561,2.43,2.353,7.222,2.353s7.222-.8,7.222-2.376S13.791,15.536,9,15.536ZM9,0a6.017,6.017,0,0,1,6.087,5.928,5.784,5.784,0,0,1-1.763,4.182A6.105,6.105,0,0,1,9.04,11.856H9A6.017,6.017,0,0,1,2.911,5.928,6.017,6.017,0,0,1,9,0ZM9,1.732a4.26,4.26,0,0,0-4.31,4.2A4.26,4.26,0,0,0,9,10.125h.037a4.318,4.318,0,0,0,3.026-1.235,4.087,4.087,0,0,0,1.246-2.958A4.26,4.26,0,0,0,9,1.732Z" transform="translate(0 0)" fill="#6e6e6e" fill-rule="evenodd"/>
    </g>
  </g>
</svg>
