<svg xmlns="http://www.w3.org/2000/svg" width="30" height="30" viewBox="0 0 30 30">
  <g id="Iconly_Bold_Calling" data-name="Iconly/Bold/Calling" transform="translate(-2 -2)">
    <g id="Group" transform="translate(18.741 2)">
      <g id="Calling" transform="translate(0)">
        <path id="Fill-1" d="M1.97,3.5a1.326,1.326,0,0,0-.5,2.6A5.336,5.336,0,0,1,5.7,10.342v0a1.324,1.324,0,0,0,1.3,1.072,1.438,1.438,0,0,0,.255-.023A1.333,1.333,0,0,0,8.29,9.833,7.976,7.976,0,0,0,1.97,3.5" transform="translate(-0.398 1.881)" fill="#e5813e"/>
        <path id="Fill-3" d="M1.872.012A1.26,1.26,0,0,0,.908.283a1.33,1.33,0,0,0,.669,2.364,10.654,10.654,0,0,1,9.442,9.462,1.321,1.321,0,0,0,1.311,1.178,1.232,1.232,0,0,0,.15-.009,1.306,1.306,0,0,0,.886-.49,1.32,1.32,0,0,0,.279-.975A13.281,13.281,0,0,0,1.872.012" transform="translate(-0.396 0)" fill="#e5813e"/>
      </g>
    </g>
    <g id="Call" transform="translate(2 3.541)">
      <path id="Stroke-1" d="M13.528,14.937C19.5,20.91,20.858,14,24.662,17.8c3.668,3.667,5.775,4.4,1.129,9.047-.582.468-4.28,6.1-17.277-6.9S1.141,3.254,1.609,2.672C6.267-1.986,6.989.134,10.656,3.8,14.46,7.6,7.553,8.963,13.528,14.937Z" transform="translate(0 0)" fill="#e5813e" fill-rule="evenodd"/>
    </g>
  </g>
</svg>
